<svg width="432" height="435" xmlns="http://www.w3.org/2000/svg" xmlns:xlink="http://www.w3.org/1999/xlink" overflow="hidden"><defs><clipPath id="clip0"><path d="M376 132 808 132 808 567 376 567Z" fill-rule="evenodd" clip-rule="evenodd"/></clipPath></defs><g clip-path="url(#clip0)" transform="translate(-376 -132)"><rect x="377.5" y="133.5" width="430" height="430" stroke="#787878" stroke-miterlimit="8" fill="#A5A5A5"/><rect x="377.5" y="133.5" width="93" height="94" stroke="#507E32" stroke-miterlimit="8" fill="#70AD47"/><rect x="470.5" y="227.5" width="132" height="131" stroke="#AE5A21" stroke-miterlimit="8" fill="#ED7D31"/><rect x="602.5" y="358.5" width="112" height="113" stroke="#BC8C00" stroke-miterlimit="8" fill="#FFC000"/><rect x="714.5" y="471.5" width="93" height="92" stroke="#2F528F" stroke-miterlimit="8" fill="#4472C4"/><path d="M0 0 187.2 0.000104987" stroke="#4472C4" stroke-width="3" stroke-miterlimit="8" stroke-dasharray="9 3" fill="none" fill-rule="evenodd" transform="matrix(-1 -8.74228e-08 -8.74228e-08 1 657.7 133.5)"/><path d="M602.5 227.5 658.729 227.5" stroke="#4472C4" stroke-width="3" stroke-miterlimit="8" stroke-dasharray="9 3" fill="none" fill-rule="evenodd"/><path d="M658.5 563.5 714.729 563.5" stroke="#4472C4" stroke-width="3" stroke-miterlimit="8" stroke-dasharray="9 3" fill="none" fill-rule="evenodd"/><path d="M635.5 292.5C635.5 257.154 645.35 228.5 657.5 228.5 669.65 228.5 679.5 257.154 679.5 292.5 679.5 327.846 669.65 356.5 657.5 356.5 645.35 356.5 635.5 327.846 635.5 292.5Z" stroke="#2F528F" stroke-miterlimit="8" fill="#9DC3E6" fill-rule="evenodd"/><path d="M635.5 415C635.5 383.796 645.35 358.5 657.5 358.5 669.65 358.5 679.5 383.796 679.5 415 679.5 446.204 669.65 471.5 657.5 471.5 645.35 471.5 635.5 446.204 635.5 415Z" stroke="#2F528F" stroke-miterlimit="8" fill="#9DC3E6" fill-rule="evenodd"/><path d="M635.5 518.5C635.5 493.095 645.574 472.5 658 472.5 670.426 472.5 680.5 493.095 680.5 518.5 680.5 543.905 670.426 564.5 658 564.5 645.574 564.5 635.5 543.905 635.5 518.5Z" stroke="#2F528F" stroke-miterlimit="8" fill="#9DC3E6" fill-rule="evenodd"/><path d="M635.5 180.5C635.5 155.095 645.35 134.5 657.5 134.5 669.65 134.5 679.5 155.095 679.5 180.5 679.5 205.905 669.65 226.5 657.5 226.5 645.35 226.5 635.5 205.905 635.5 180.5Z" stroke="#2F528F" stroke-miterlimit="8" fill="#9DC3E6" fill-rule="evenodd"/><path d="M0 0 1.37134 429.714" stroke="#000000" stroke-width="3" stroke-miterlimit="8" fill="none" fill-rule="evenodd" transform="matrix(-1 -8.74228e-08 -8.74228e-08 1 656.871 135.5)"/><path d="M649.5 390C649.5 386.41 652.41 383.5 656 383.5 659.59 383.5 662.5 386.41 662.5 390 662.5 393.59 659.59 396.5 656 396.5 652.41 396.5 649.5 393.59 649.5 390Z" stroke="#2F528F" stroke-miterlimit="8" fill="#FF0000" fill-rule="evenodd"/></g></svg>